<svg width="21" height="22" viewBox="0 0 21 22" fill="none" xmlns="http://www.w3.org/2000/svg">
<path d="M8.6709 20C8.8562 20.304 9.1227 20.5565 9.44363 20.732C9.76455 20.9075 10.1286 20.9999 10.4992 20.9999C10.8697 20.9999 11.2338 20.9075 11.5547 20.732C11.8756 20.5565 12.1421 20.304 12.3274 20" stroke="white" stroke-opacity="0.8" stroke-width="2" stroke-linecap="round" stroke-linejoin="round"/>
<path d="M1.27579 14.3263C1.13789 14.4695 1.04689 14.6476 1.01385 14.8389C0.980816 15.0301 1.00717 15.2264 1.0897 15.4037C1.17223 15.5811 1.30739 15.7319 1.47873 15.8378C1.65007 15.9438 1.85021 16.0002 2.05481 16.0004H18.944C19.1486 16.0004 19.3488 15.9442 19.5202 15.8385C19.6917 15.7327 19.827 15.5821 19.9098 15.4049C19.9925 15.2276 20.0191 15.0314 19.9864 14.8401C19.9536 14.6488 19.8628 14.4707 19.7252 14.3273C18.3213 12.9563 16.8329 11.4993 16.8329 7.00014C16.8329 5.40881 16.1656 3.88265 14.9779 2.7574C13.7901 1.63216 12.1792 1 10.4994 1C8.81969 1 7.20875 1.63216 6.02099 2.7574C4.83324 3.88265 4.16596 5.40881 4.16596 7.00014C4.16596 11.4993 2.67654 12.9563 1.27579 14.3263Z" stroke="white" stroke-opacity="0.8" stroke-width="2" stroke-linecap="round" stroke-linejoin="round"/>
</svg>
