<svg width="180" height="32" viewBox="0 0 180 32" fill="none" xmlns="http://www.w3.org/2000/svg">
<path d="M2.2017 30.9941V1.90323H9.23295V25.2839H21.3352V30.9941H2.2017ZM34.674 31.4061C32.3918 31.4061 30.4221 30.9563 28.7649 30.0566C27.1172 29.1475 25.8482 27.8549 24.9581 26.1788C24.0774 24.4932 23.6371 22.4904 23.6371 20.1703C23.6371 17.9165 24.0821 15.9468 24.9723 14.2612C25.8625 12.5661 27.1172 11.2498 28.7365 10.3123C30.3558 9.36535 32.264 8.89187 34.4609 8.89187C36.014 8.89187 37.4344 9.13334 38.7223 9.6163C40.0102 10.0993 41.1229 10.8142 42.0604 11.7612C42.9979 12.7082 43.727 13.8777 44.2479 15.2697C44.7687 16.6523 45.0291 18.2385 45.0291 20.0282V21.7612H26.0661V17.7271H38.5661C38.5566 16.9885 38.3814 16.3303 38.0405 15.7527C37.6996 15.175 37.2308 14.7252 36.6342 14.4032C36.0471 14.0718 35.37 13.9061 34.603 13.9061C33.8265 13.9061 33.1304 14.0813 32.5149 14.4316C31.8994 14.7725 31.4117 15.2413 31.0518 15.8379C30.692 16.425 30.5026 17.0926 30.4837 17.8407V21.9458C30.4837 22.836 30.6589 23.6172 31.0092 24.2896C31.3596 24.9525 31.8568 25.4686 32.5007 25.8379C33.1446 26.2072 33.9117 26.3919 34.8018 26.3919C35.4174 26.3919 35.9761 26.3066 36.478 26.1362C36.9799 25.9657 37.4107 25.7148 37.7706 25.3833C38.1304 25.0519 38.4003 24.6447 38.5803 24.1618L44.9581 24.3464C44.6929 25.7763 44.1106 27.0216 43.2109 28.0822C42.3208 29.1333 41.1513 29.9525 39.7024 30.5396C38.2536 31.1172 36.5774 31.4061 34.674 31.4061ZM60.392 9.17596V14.2896H46.6278V9.17596H60.392ZM49.5114 3.94869H56.4574V24.1333C56.4574 24.5595 56.5237 24.9051 56.6562 25.1703C56.7983 25.426 57.0019 25.6106 57.267 25.7243C57.5322 25.8284 57.8494 25.8805 58.2188 25.8805C58.4839 25.8805 58.7633 25.8568 59.0568 25.8095C59.3598 25.7527 59.5871 25.7053 59.7386 25.6674L60.7898 30.6816C60.4583 30.7763 59.9896 30.8947 59.3835 31.0368C58.7869 31.1788 58.072 31.2688 57.2386 31.3066C55.6098 31.3824 54.2131 31.193 53.0483 30.7385C51.893 30.2744 51.0076 29.5547 50.392 28.5794C49.786 27.604 49.4924 26.3777 49.5114 24.9004V3.94869Z" fill="white"/>
<path d="M63.2017 1.90323H71.9091L79.2955 19.9146H79.6364L87.0227 1.90323H95.7301V30.9941H88.8835V13.1248H88.642L81.6534 30.8095H77.2784L70.2898 13.0254H70.0483V30.9941H63.2017V1.90323ZM109.8 31.4061C107.509 31.4061 105.539 30.9373 103.891 29.9998C102.253 29.0529 100.989 27.7366 100.099 26.051C99.218 24.3559 98.7777 22.3909 98.7777 20.1561C98.7777 17.9118 99.218 15.9468 100.099 14.2612C100.989 12.5661 102.253 11.2498 103.891 10.3123C105.539 9.36535 107.509 8.89187 109.8 8.89187C112.092 8.89187 114.057 9.36535 115.695 10.3123C117.343 11.2498 118.607 12.5661 119.488 14.2612C120.378 15.9468 120.823 17.9118 120.823 20.1561C120.823 22.3909 120.378 24.3559 119.488 26.051C118.607 27.7366 117.343 29.0529 115.695 29.9998C114.057 30.9373 112.092 31.4061 109.8 31.4061ZM109.843 26.1646C110.676 26.1646 111.382 25.9089 111.96 25.3975C112.537 24.8862 112.978 24.176 113.281 23.2669C113.593 22.3578 113.749 21.3066 113.749 20.1135C113.749 18.9013 113.593 17.8407 113.281 16.9316C112.978 16.0225 112.537 15.3123 111.96 14.801C111.382 14.2896 110.676 14.0339 109.843 14.0339C108.981 14.0339 108.252 14.2896 107.656 14.801C107.068 15.3123 106.619 16.0225 106.306 16.9316C106.003 17.8407 105.852 18.9013 105.852 20.1135C105.852 21.3066 106.003 22.3578 106.306 23.2669C106.619 24.176 107.068 24.8862 107.656 25.3975C108.252 25.9089 108.981 26.1646 109.843 26.1646ZM144.343 9.17596L136.857 30.9941H128.903L121.431 9.17596H128.746L132.766 24.2044H132.994L137.028 9.17596H144.343ZM146.506 30.9941V9.17596H153.452V30.9941H146.506ZM149.987 6.63335C149.011 6.63335 148.173 6.31138 147.472 5.66744C146.772 5.01403 146.421 4.22804 146.421 3.30948C146.421 2.40039 146.772 1.62387 147.472 0.979936C148.173 0.326526 149.011 -0.000179291 149.987 -0.000179291C150.971 -0.000179291 151.809 0.326526 152.501 0.979936C153.201 1.62387 153.552 2.40039 153.552 3.30948C153.552 4.22804 153.201 5.01403 152.501 5.66744C151.809 6.31138 150.971 6.63335 149.987 6.63335ZM167.572 31.4061C165.29 31.4061 163.321 30.9563 161.663 30.0566C160.016 29.1475 158.747 27.8549 157.857 26.1788C156.976 24.4932 156.536 22.4904 156.536 20.1703C156.536 17.9165 156.981 15.9468 157.871 14.2612C158.761 12.5661 160.016 11.2498 161.635 10.3123C163.254 9.36535 165.162 8.89187 167.359 8.89187C168.912 8.89187 170.333 9.13334 171.621 9.6163C172.909 10.0993 174.021 10.8142 174.959 11.7612C175.896 12.7082 176.625 13.8777 177.146 15.2697C177.667 16.6523 177.928 18.2385 177.928 20.0282V21.7612H158.964V17.7271H171.464C171.455 16.9885 171.28 16.3303 170.939 15.7527C170.598 15.175 170.129 14.7252 169.533 14.4032C168.946 14.0718 168.268 13.9061 167.501 13.9061C166.725 13.9061 166.029 14.0813 165.413 14.4316C164.798 14.7725 164.31 15.2413 163.95 15.8379C163.59 16.425 163.401 17.0926 163.382 17.8407V21.9458C163.382 22.836 163.557 23.6172 163.908 24.2896C164.258 24.9525 164.755 25.4686 165.399 25.8379C166.043 26.2072 166.81 26.3919 167.7 26.3919C168.316 26.3919 168.875 26.3066 169.376 26.1362C169.878 25.9657 170.309 25.7148 170.669 25.3833C171.029 25.0519 171.299 24.6447 171.479 24.1618L177.857 24.3464C177.591 25.7763 177.009 27.0216 176.109 28.0822C175.219 29.1333 174.05 29.9525 172.601 30.5396C171.152 31.1172 169.476 31.4061 167.572 31.4061Z" fill="#F20D18"/>
</svg>
